<svg id="visual" viewBox="0 0 900 600" width="900" height="600" xmlns="http://www.w3.org/2000/svg" xmlns:xlink="http://www.w3.org/1999/xlink" version="1.1"><rect x="0" y="0" width="900" height="600" fill="#000"></rect><path d="M0 430L21.5 429.8C43 429.7 86 429.3 128.8 422.5C171.7 415.7 214.3 402.3 257.2 391.3C300 380.3 343 371.7 385.8 374.7C428.7 377.7 471.3 392.3 514.2 397C557 401.7 600 396.3 642.8 393.7C685.7 391 728.3 391 771.2 399.7C814 408.3 857 425.7 878.5 434.3L900 443L900 601L878.5 601C857 601 814 601 771.2 601C728.3 601 685.7 601 642.8 601C600 601 557 601 514.2 601C471.3 601 428.7 601 385.8 601C343 601 300 601 257.2 601C214.3 601 171.7 601 128.8 601C86 601 43 601 21.5 601L0 601Z" fill="#4506cb"></path><path d="M0 444L21.5 440.7C43 437.3 86 430.7 128.8 433C171.7 435.3 214.3 446.7 257.2 447.5C300 448.3 343 438.7 385.8 428.7C428.7 418.7 471.3 408.3 514.2 415.8C557 423.3 600 448.7 642.8 450.7C685.7 452.7 728.3 431.3 771.2 428.7C814 426 857 442 878.5 450L900 458L900 601L878.5 601C857 601 814 601 771.2 601C728.3 601 685.7 601 642.8 601C600 601 557 601 514.2 601C471.3 601 428.7 601 385.8 601C343 601 300 601 257.2 601C214.3 601 171.7 601 128.8 601C86 601 43 601 21.5 601L0 601Z" fill="#5207d8"></path><path d="M0 511L21.5 501.7C43 492.3 86 473.7 128.8 462.3C171.7 451 214.3 447 257.2 454.2C300 461.3 343 479.7 385.8 486C428.7 492.3 471.3 486.7 514.2 485.5C557 484.3 600 487.7 642.8 491.8C685.7 496 728.3 501 771.2 499C814 497 857 488 878.5 483.5L900 479L900 601L878.5 601C857 601 814 601 771.2 601C728.3 601 685.7 601 642.8 601C600 601 557 601 514.2 601C471.3 601 428.7 601 385.8 601C343 601 300 601 257.2 601C214.3 601 171.7 601 128.8 601C86 601 43 601 21.5 601L0 601Z" fill="#5e07e5"></path><path d="M0 509L21.5 509.7C43 510.3 86 511.7 128.8 509.8C171.7 508 214.3 503 257.2 500.3C300 497.7 343 497.3 385.8 498.5C428.7 499.7 471.3 502.3 514.2 506.5C557 510.7 600 516.3 642.8 518C685.7 519.7 728.3 517.3 771.2 515.5C814 513.7 857 512.3 878.5 511.7L900 511L900 601L878.5 601C857 601 814 601 771.2 601C728.3 601 685.7 601 642.8 601C600 601 557 601 514.2 601C471.3 601 428.7 601 385.8 601C343 601 300 601 257.2 601C214.3 601 171.7 601 128.8 601C86 601 43 601 21.5 601L0 601Z" fill="#6a07f2"></path><path d="M0 549L21.5 551C43 553 86 557 128.8 556.7C171.7 556.3 214.3 551.7 257.2 546C300 540.3 343 533.7 385.8 536.7C428.7 539.7 471.3 552.3 514.2 555.3C557 558.3 600 551.7 642.8 552.3C685.7 553 728.3 561 771.2 564C814 567 857 565 878.5 564L900 563L900 601L878.5 601C857 601 814 601 771.2 601C728.3 601 685.7 601 642.8 601C600 601 557 601 514.2 601C471.3 601 428.7 601 385.8 601C343 601 300 601 257.2 601C214.3 601 171.7 601 128.8 601C86 601 43 601 21.5 601L0 601Z" fill="#7707ff"></path></svg>